<svg width="582" height="359" viewBox="0 0 582 359" fill="none" xmlns="http://www.w3.org/2000/svg">
<path d="M52.715 120V48.25H26.715V29.8125H101.652V48.25H75.59V120H52.715ZM133.53 121.625C111.717 121.625 98.405 107.812 98.405 85.25V85.1875C98.405 62.75 111.717 48.8125 132.717 48.8125C153.655 48.8125 166.967 62.5625 166.967 83.8125V90.1875H120.155C120.342 100.125 125.467 105.875 133.967 105.875C141.342 105.875 145.155 101.625 146.155 99.8125L146.28 99.5625L166.53 99.5L166.342 100.25C164.342 108.562 155.842 121.625 133.53 121.625ZM133.217 64.5625C126.405 64.5625 121.467 69.125 120.405 77.3125H146.03C144.967 69 140.092 64.5625 133.217 64.5625ZM209.908 121.625C186.97 121.625 174.72 108.875 174.72 85.1875V85.0625C174.72 61.5 186.97 48.8125 209.908 48.8125C229.095 48.8125 240.533 59 241.908 76.125L241.845 76.1875L221.658 76.25L221.595 76.125C220.658 69.4375 216.783 65.625 210.033 65.625C201.408 65.625 197.22 72.0625 197.22 85.0625V85.1875C197.22 98.3125 201.47 104.812 210.033 104.812C216.658 104.812 220.47 101.5 221.533 94.875L221.658 94.75H241.845V94.9375C240.345 111.438 228.783 121.625 209.908 121.625ZM253.348 120V24.375H275.473V61.3125H276.66C279.66 53.6875 286.66 48.8125 296.473 48.8125C311.91 48.8125 319.973 58.375 319.973 75.0625V120H297.848V80C297.848 71.5625 294.41 66.8125 286.91 66.8125C279.723 66.8125 275.473 72.25 275.473 80.25V120H253.348Z" fill="#F7E9D1"/>
<path d="M124.962 244V153.812H162.837C189.712 153.812 205.025 169.812 205.025 197.938V198.062C205.025 227.625 189.962 244 162.837 244H124.962ZM147.9 225.562H158.712C173.587 225.562 181.65 216.312 181.65 198.5V198.375C181.65 181.625 173.15 172.25 158.712 172.25H147.9V225.562ZM249.215 245.625C227.402 245.625 214.09 231.812 214.09 209.25V209.188C214.09 186.75 227.402 172.812 248.402 172.812C269.34 172.812 282.652 186.562 282.652 207.812V214.188H235.84C236.027 224.125 241.152 229.875 249.652 229.875C257.027 229.875 260.84 225.625 261.84 223.812L261.965 223.562L282.215 223.5L282.027 224.25C280.027 232.562 271.527 245.625 249.215 245.625ZM248.902 188.562C242.09 188.562 237.152 193.125 236.09 201.312H261.715C260.652 193 255.777 188.562 248.902 188.562ZM323.405 245.625C302.78 245.625 291.967 236.625 290.592 224.5V224.062H312.092L312.217 224.438C313.53 228 317.03 230.688 323.467 230.688C329.405 230.688 333.217 228.375 333.217 224.625V224.562C333.217 221.312 330.842 219.438 324.53 218.125L312.53 215.75C299.092 213.062 292.217 206.062 292.217 195.438V195.375C292.217 181.5 304.092 172.812 322.78 172.812C342.905 172.812 353.03 182.812 353.405 193.938V194.25H333.155L333.03 193.812C332.342 190.938 328.905 187.688 322.78 187.688C317.28 187.688 313.592 190 313.592 193.875V194C313.592 197.125 315.717 198.938 322.342 200.312L334.342 202.688C348.717 205.562 355.28 211.438 355.28 221.875V221.938C355.28 236.375 342.28 245.625 323.405 245.625ZM377.783 165.125C371.345 165.125 366.033 160.062 366.033 153.625C366.033 147.188 371.345 142.062 377.783 142.062C384.22 142.062 389.533 147.188 389.533 153.625C389.533 160.062 384.22 165.125 377.783 165.125ZM366.658 244V174.438H388.845V244H366.658ZM435.285 268.438C414.785 268.438 403.348 260.125 401.91 248.062V247.625H423.473L423.598 248C424.535 251.375 428.535 253.625 435.91 253.625C444.41 253.625 449.285 249.688 449.285 242.688V230.312H448.098C444.535 237.5 437.473 241.25 427.723 241.25C410.535 241.25 399.91 228 399.91 208V207.875C399.91 186.938 410.473 173.375 428.098 173.375C437.535 173.375 444.91 177.938 448.348 185.75H449.223V174.438H471.41V241.25C471.41 258 457.41 268.438 435.285 268.438ZM435.91 224.938C444.41 224.938 449.41 218.188 449.41 208V207.875C449.41 197.625 444.348 190.875 435.91 190.875C427.535 190.875 422.598 197.625 422.598 207.812V207.938C422.598 218.188 427.473 224.938 435.91 224.938ZM486.038 244V174.438H508.163V185.312H509.35C512.35 177.688 519.35 172.812 529.163 172.812C544.6 172.812 552.663 182.375 552.663 199.062V244H530.538V204C530.538 195.562 527.1 190.812 519.6 190.812C512.413 190.812 508.163 196.25 508.163 204.25V244H486.038Z" fill="#F7E9D1"/>
<path d="M31.84 343V252.812H69.715C96.59 252.812 111.902 268.812 111.902 296.938V297.062C111.902 326.625 96.84 343 69.715 343H31.84ZM54.7775 324.562H65.59C80.465 324.562 88.5275 315.312 88.5275 297.5V297.375C88.5275 280.625 80.0275 271.25 65.59 271.25H54.7775V324.562ZM142.28 344.062C128.967 344.062 119.842 335.75 119.842 323.062V322.938C119.842 310.312 129.717 303 147.655 301.875L162.842 301V295.562C162.842 290.875 159.342 288.062 153.217 288.062C147.405 288.062 143.842 290 142.53 293.5L142.405 293.812H122.342L122.405 293.062C123.655 280.25 135.655 271.812 154.467 271.812C173.655 271.812 184.592 280.562 184.592 295.562V343H162.842V334.375H161.655C158.592 340.312 151.155 344.062 142.28 344.062ZM141.155 321.5C141.155 325.875 144.842 328.625 150.405 328.625C157.405 328.625 162.842 324 162.842 318V313.438L151.155 314.188C144.592 314.625 141.155 317.25 141.155 321.375V321.5ZM229.845 343.125C211.533 343.125 204.283 337.562 204.283 323.938V289.688H193.658V273.438H204.283V257.5H226.47V273.438H240.408V289.688H226.47V318.938C226.47 324.188 229.095 326.688 234.845 326.688C237.408 326.688 238.783 326.625 240.408 326.438V342.25C238.095 342.75 234.033 343.125 229.845 343.125ZM271.285 344.062C257.973 344.062 248.848 335.75 248.848 323.062V322.938C248.848 310.312 258.723 303 276.66 301.875L291.848 301V295.562C291.848 290.875 288.348 288.062 282.223 288.062C276.41 288.062 272.848 290 271.535 293.5L271.41 293.812H251.348L251.41 293.062C252.66 280.25 264.66 271.812 283.473 271.812C302.66 271.812 313.598 280.562 313.598 295.562V343H291.848V334.375H290.66C287.598 340.312 280.16 344.062 271.285 344.062ZM270.16 321.5C270.16 325.875 273.848 328.625 279.41 328.625C286.41 328.625 291.848 324 291.848 318V313.438L280.16 314.188C273.598 314.625 270.16 317.25 270.16 321.375V321.5Z" fill="#F7E9D1"/>
</svg>
