<svg width="25" height="24" viewBox="0 0 25 24" fill="none" xmlns="http://www.w3.org/2000/svg">
<path d="M18.6665 7.91002C18.6365 7.91002 18.6164 7.91002 18.5864 7.91002H18.5364C16.6464 7.85002 15.2365 6.39001 15.2365 4.59001C15.2365 2.75001 16.7365 1.26001 18.5665 1.26001C20.3965 1.26001 21.8965 2.76001 21.8965 4.59001C21.8865 6.40001 20.4764 7.86001 18.6764 7.92001C18.6764 7.91001 18.6765 7.91002 18.6665 7.91002ZM18.5665 2.75002C17.5565 2.75002 16.7365 3.57002 16.7365 4.58002C16.7365 5.57002 17.5065 6.37002 18.4965 6.41002C18.5065 6.40002 18.5864 6.40002 18.6764 6.41002C19.6464 6.36002 20.3965 5.56002 20.4065 4.58002C20.4065 3.57002 19.5865 2.75002 18.5665 2.75002Z" fill="black"/>
<path d="M18.6766 15.28C18.2866 15.28 17.8966 15.25 17.5066 15.18C17.0966 15.11 16.8266 14.72 16.8966 14.31C16.9666 13.9 17.3566 13.63 17.7666 13.7C18.9966 13.91 20.2966 13.68 21.1666 13.1C21.6366 12.79 21.8866 12.4 21.8866 12.01C21.8866 11.62 21.6266 11.24 21.1666 10.93C20.2966 10.35 18.9766 10.12 17.7366 10.34C17.3266 10.42 16.9366 10.14 16.8666 9.73002C16.7966 9.32002 17.0666 8.93003 17.4766 8.86003C19.1066 8.57003 20.7966 8.88002 21.9966 9.68002C22.8766 10.27 23.3866 11.11 23.3866 12.01C23.3866 12.9 22.8866 13.75 21.9966 14.35C21.0866 14.95 19.9066 15.28 18.6766 15.28Z" fill="black"/>
<path d="M6.63661 7.91C6.62661 7.91 6.61661 7.91 6.61661 7.91C4.81661 7.85 3.40661 6.39 3.39661 4.59C3.39661 2.75 4.89661 1.25 6.72661 1.25C8.55661 1.25 10.0566 2.75 10.0566 4.58C10.0566 6.39 8.64661 7.85 6.84661 7.91L6.63661 7.16L6.70661 7.91C6.68661 7.91 6.65661 7.91 6.63661 7.91ZM6.73661 6.41C6.79661 6.41 6.84661 6.41 6.90661 6.42C7.79661 6.38 8.57661 5.58 8.57661 4.59C8.57661 3.58 7.75661 2.75999 6.74661 2.75999C5.73661 2.75999 4.91661 3.58 4.91661 4.59C4.91661 5.57 5.67661 6.36 6.64661 6.42C6.65661 6.41 6.69661 6.41 6.73661 6.41Z" fill="black"/>
<path d="M6.62663 15.28C5.39663 15.28 4.21663 14.95 3.30663 14.35C2.42663 13.76 1.91663 12.91 1.91663 12.01C1.91663 11.12 2.42663 10.27 3.30663 9.68002C4.50663 8.88002 6.19663 8.57003 7.82663 8.86003C8.23663 8.93003 8.50663 9.32002 8.43663 9.73002C8.36663 10.14 7.97663 10.42 7.56663 10.34C6.32663 10.12 5.01663 10.35 4.13663 10.93C3.66663 11.24 3.41663 11.62 3.41663 12.01C3.41663 12.4 3.67663 12.79 4.13663 13.1C5.00663 13.68 6.30662 13.91 7.53662 13.7C7.94662 13.63 8.33663 13.91 8.40663 14.31C8.47663 14.72 8.20663 15.11 7.79663 15.18C7.40663 15.25 7.01662 15.28 6.62663 15.28Z" fill="black"/>
<path d="M12.6665 15.38C12.6365 15.38 12.6164 15.38 12.5864 15.38H12.5364C10.6464 15.32 9.23645 13.86 9.23645 12.06C9.23645 10.22 10.7365 8.72998 12.5665 8.72998C14.3965 8.72998 15.8965 10.23 15.8965 12.06C15.8864 13.87 14.4764 15.33 12.6764 15.39C12.6764 15.38 12.6765 15.38 12.6665 15.38ZM12.5665 10.22C11.5565 10.22 10.7365 11.04 10.7365 12.05C10.7365 13.04 11.5065 13.84 12.4965 13.88C12.5065 13.87 12.5864 13.87 12.6764 13.88C13.6464 13.83 14.3965 13.03 14.4065 12.05C14.4065 11.05 13.5865 10.22 12.5665 10.22Z" fill="black"/>
<path d="M12.6664 22.76C11.4664 22.76 10.2664 22.45 9.33641 21.82C8.45641 21.23 7.94641 20.39 7.94641 19.49C7.94641 18.6 8.44641 17.74 9.33641 17.15C11.2064 15.91 14.1364 15.91 15.9964 17.15C16.8764 17.74 17.3864 18.58 17.3864 19.48C17.3864 20.37 16.8864 21.23 15.9964 21.82C15.0664 22.44 13.8664 22.76 12.6664 22.76ZM10.1664 18.41C9.69641 18.72 9.44641 19.11 9.44641 19.5C9.44641 19.89 9.70641 20.27 10.1664 20.58C11.5164 21.49 13.8064 21.49 15.1564 20.58C15.6264 20.27 15.8764 19.88 15.8764 19.49C15.8764 19.1 15.6164 18.72 15.1564 18.41C13.8164 17.5 11.5264 17.51 10.1664 18.41Z" fill="black"/>
</svg>
