<svg width="1162" height="133" viewBox="0 0 1162 133" fill="none" xmlns="http://www.w3.org/2000/svg">
<path d="M0.472657 2.60012H39.4727C52.406 2.60012 63.6393 5.23345 73.1727 10.5001C82.7727 15.7001 90.2393 23.0668 95.5727 32.6001C100.906 42.1335 103.573 53.3668 103.573 66.3001C103.573 79.1668 100.906 90.3668 95.5727 99.9001C90.2393 109.433 82.7727 116.833 73.1727 122.1C63.6393 127.367 52.406 130 39.4727 130H0.472657V2.60012ZM19.4727 19.7001V113.2H39.4727C48.5393 113.2 56.306 111.167 62.7727 107.1C69.306 103.033 74.3393 97.4668 77.8727 90.4001C81.406 83.3335 83.1727 75.3001 83.1727 66.3001C83.1727 57.3001 81.406 49.3001 77.8727 42.3001C74.3393 35.2335 69.306 29.7001 62.7727 25.7001C56.306 21.7001 48.5393 19.7001 39.4727 19.7001H19.4727ZM129.848 130V2.60012H148.848V130H129.848ZM228.455 132.6C218.189 132.6 208.889 129.933 200.555 124.6C192.222 119.2 185.589 111.633 180.655 101.9C175.722 92.1001 173.255 80.6001 173.255 67.4001C173.255 56.6668 174.789 47.1334 177.855 38.8001C180.989 30.4668 185.289 23.4335 190.755 17.7001C196.289 11.9668 202.689 7.63345 209.955 4.70012C217.222 1.76678 224.989 0.300117 233.255 0.300117C244.055 0.300117 253.322 2.56678 261.055 7.10011C268.789 11.6335 275.155 18.8335 280.155 28.7001L261.355 34.1001C257.355 28.5668 252.955 24.4334 248.155 21.7001C243.355 18.9001 238.089 17.5001 232.355 17.5001C225.355 17.5001 218.889 19.5335 212.955 23.6001C207.089 27.6001 202.389 33.3335 198.855 40.8001C195.322 48.2001 193.555 57.0668 193.555 67.4001C193.555 76.8001 195.022 85.1001 197.955 92.3001C200.955 99.4335 205.155 105.033 210.555 109.1C216.022 113.1 222.455 115.1 229.855 115.1C235.722 115.1 240.989 113.767 245.655 111.1C250.322 108.433 253.989 104.5 256.655 99.3001C259.389 94.0335 260.755 87.5335 260.755 79.8001H265.755C265.755 90.5335 264.455 99.8668 261.855 107.8C259.322 115.667 255.322 121.767 249.855 126.1C244.389 130.433 237.255 132.6 228.455 132.6ZM263.755 130L260.755 100.8V79.2001L230.155 78.4001V65.9001H279.155V130H263.755ZM309.496 130V2.60012H328.496V130H309.496ZM344.204 19.0001V2.60012H444.604V19.0001H399.604L403.904 14.6001V130H384.904V14.6001L389.104 19.0001H344.204ZM437.045 130L480.645 2.60012H504.145L546.445 130H526.445L516.545 99.6001H467.345L457.045 130H437.045ZM472.145 85.0001H511.845L492.045 25.5001L472.145 85.0001ZM584.785 2.60012V113.4H639.685V130H565.785V2.60012H584.785ZM746.916 132.6C736.05 132.6 726.383 130.133 717.916 125.2C709.45 120.267 702.783 112.9 697.916 103.1C693.116 93.3001 690.716 81.0668 690.716 66.4001C690.716 51.4668 693.116 39.1335 697.916 29.4001C702.783 19.6001 709.45 12.3001 717.916 7.50012C726.383 2.70012 736.05 0.300117 746.916 0.300117C757.85 0.300117 767.55 2.73345 776.016 7.60011C784.55 12.4668 791.216 19.8335 796.016 29.7001C800.883 39.5001 803.316 51.7334 803.316 66.4001C803.316 81.2001 800.883 93.5335 796.016 103.4C791.216 113.2 784.55 120.533 776.016 125.4C767.55 130.2 757.85 132.6 746.916 132.6ZM746.916 115.2C758.25 115.2 767.183 111.033 773.716 102.7C780.316 94.3668 783.616 82.2001 783.616 66.2001C783.616 50.6001 780.316 38.5668 773.716 30.1001C767.183 21.5668 758.25 17.3001 746.916 17.3001C735.783 17.3001 726.916 21.5668 720.316 30.1001C713.716 38.6334 710.416 50.7335 710.416 66.4001C710.416 82.2668 713.716 94.3668 720.316 102.7C726.916 111.033 735.783 115.2 746.916 115.2ZM846.543 2.60012V113.4H901.443V130H827.543V2.60012H846.543ZM918.246 130V2.60012H937.246V130H918.246ZM1008.55 109.5L1044.05 2.60012H1064.15L1019.45 130H999.554L955.354 2.60012H975.554L1010.75 109.5H1008.55ZM1081.87 130V2.60012H1161.87V19.0001H1100.87V57.8001H1158.27V74.2001H1100.87V113.4H1161.87V130H1081.87Z" fill="#184530"/>
</svg>
